<svg width="70" height="70" viewBox="0 0 70 70" fill="none" xmlns="http://www.w3.org/2000/svg">
<path fill-rule="evenodd" clip-rule="evenodd" d="M49.3383 19.957C45.6693 16.2879 40.5998 14.0184 34.9998 14.0184C29.3998 14.0184 24.3303 16.2879 20.6612 19.957C16.9921 23.6261 14.7226 28.6956 14.7226 34.2952C14.7226 39.8947 16.9921 44.9651 20.6612 48.6341C24.3303 52.3032 29.3998 54.5723 34.9998 54.5723C40.5998 54.5723 45.6693 52.3032 49.3383 48.6341C53.0074 44.9651 55.2774 39.8951 55.2774 34.2952C55.2774 28.6952 53.0079 23.6261 49.3383 19.957ZM42.2189 8.33853C44.5128 8.97543 46.6835 9.90805 48.6876 11.0927L48.6657 11.0792L55.1806 5.68368L59.7483 10.2513L64.3159 14.819L58.7374 21.5552L58.7248 21.5316C59.7663 23.4642 60.5791 25.5385 61.1264 27.718L61.1239 27.7058L70 28.54V34.9998V41.4596L60.7162 42.3317L60.7183 42.3237C60.1083 44.2798 59.2817 46.1396 58.2662 47.8757L64.3163 55.1806L59.7487 59.7483L55.181 64.3159L47.6519 58.0803L47.6801 58.0647C46.0045 58.9603 44.2238 59.6843 42.3607 60.2123L42.38 60.2072L41.46 70H28.5404L27.6204 60.2072C25.7715 59.6818 24.0047 58.9637 22.341 58.0765L22.3485 58.0807L14.819 64.3167L10.2513 59.7491L5.68368 55.1815L11.7338 47.8765L11.7434 47.8921C10.7237 46.1513 9.89333 44.2865 9.28168 42.3249L9.2842 42.3325L0 41.4596V34.9998V28.54L8.87615 27.7058L8.86816 27.7399C9.41503 25.5536 10.229 23.4726 11.2736 21.5345L11.2626 21.5547L5.68368 14.8185L10.2513 10.2509L14.819 5.68326L21.3343 11.0788L21.3293 11.0821C23.3237 9.90511 25.483 8.97753 27.7634 8.34274L27.7567 8.34442L28.54 0H41.4596L42.2437 8.34526L42.2189 8.33853Z" fill="#666666"/>
<path fill-rule="evenodd" clip-rule="evenodd" d="M28.7704 28.0658L26.1904 30.6462V34.2951V37.944L28.7704 40.5244L31.3508 43.1044H34.9997H38.649L41.229 40.5244L43.8094 37.944V34.2951V30.6462L41.229 28.0658L38.649 25.4858H34.9997H31.3508L28.7704 28.0658Z" fill="#666666"/>
</svg>
