<svg width="64" height="64" viewBox="0 0 64 64" fill="none" xmlns="http://www.w3.org/2000/svg">
<path d="M61.2849 59.0697H58.3314V40.6104C58.3314 25.9316 46.4288 14.0291 31.75 14.0291C17.0712 14.0291 5.1686 25.9316 5.1686 40.6104V59.0697H2.21512C1.00419 59.0697 0 60.0739 0 61.2849C0 62.4958 1.00419 63.5 2.21512 63.5H61.2849C62.4958 63.5 63.5 62.4958 63.5 61.2849C63.5 60.0739 62.4958 59.0697 61.2849 59.0697Z" fill="#666666"/>
<path d="M31.7503 7.38372C30.5393 7.38372 29.5352 6.37953 29.5352 5.1686V2.21512C29.5352 1.00419 30.5393 0 31.7503 0C32.9612 0 33.9654 1.00419 33.9654 2.21512V5.1686C33.9654 6.37953 32.9612 7.38372 31.7503 7.38372Z" fill="#666666"/>
<path d="M11.0753 13.2904C10.5141 13.2904 9.95296 13.0837 9.50993 12.6406L6.55645 9.68714C5.69993 8.83063 5.69993 7.41296 6.55645 6.55645C7.41296 5.69993 8.83063 5.69993 9.68714 6.55645L12.6406 9.50993C13.4971 10.3664 13.4971 11.7841 12.6406 12.6406C12.1976 13.0837 11.6364 13.2904 11.0753 13.2904Z" fill="#666666"/>
<path d="M52.4245 13.2904C51.8634 13.2904 51.3022 13.0837 50.8592 12.6406C50.0027 11.7841 50.0027 10.3664 50.8592 9.50993L53.8127 6.55645C54.6692 5.69993 56.0869 5.69993 56.9434 6.55645C57.7999 7.41296 57.7999 8.83063 56.9434 9.68714L53.9899 12.6406C53.5469 13.0837 52.9857 13.2904 52.4245 13.2904Z" fill="#666666"/>
</svg>
