<svg width="64" height="54" viewBox="0 0 64 54" fill="none" xmlns="http://www.w3.org/2000/svg">
<path d="M59.4286 6.2713V14.6286H0V6.2713C0 2.82142 2.86616 0 6.37074 0H12.7415V6.2713C12.7415 7.42126 13.6991 8.35727 14.8605 8.35727C16.0219 8.35727 16.9796 7.41457 16.9796 6.2713V0H42.449V6.2713C42.449 7.42126 43.4066 8.35727 44.568 8.35727C45.7294 8.35727 46.6871 7.41457 46.6871 6.2713V0H53.0578C56.5624 0 59.4286 2.82142 59.4286 6.2713Z" fill="#666666"/>
<path d="M37.6404 40.72C37.6404 32.7884 43.9024 26.3567 51.6248 26.3567C54.5181 26.3567 57.2008 27.2566 59.4286 28.7982V18.2856H0V40.0852C0 43.6847 2.86616 46.6285 6.37074 46.6285H38.8901C38.0954 44.8287 37.6472 42.8336 37.6472 40.7269L37.6404 40.72Z" fill="#666666"/>
<path d="M52.1155 29.2571C45.5507 29.2596 40.2285 34.5818 40.2285 41.1503C40.2285 47.2828 44.8719 52.3173 50.8304 52.9618C57.9677 53.7051 63.9999 48.14 63.9999 41.1503C63.9999 34.5821 58.6781 29.2571 52.113 29.2571H52.1155ZM57.222 42.674H52.1155C51.2686 42.674 50.585 41.9876 50.585 41.1427V33.7587C50.585 32.9113 51.271 32.2274 52.1155 32.2274C52.9624 32.2274 53.646 32.9113 53.646 33.7587V39.6112H57.222C58.0664 39.6112 58.7524 40.295 58.7524 41.1425C58.7524 41.9874 58.0665 42.674 57.222 42.674Z" fill="#666666"/>
</svg>
