<svg width="249" height="34" viewBox="0 0 249 34" fill="none" xmlns="http://www.w3.org/2000/svg">
<path d="M46.6944 9.42426C41.7306 6.52988 35.2497 7.19405 30.999 11.4447C25.9443 16.4994 25.9443 24.7281 30.999 29.7828C32.4812 31.2649 34.3129 32.3695 36.2984 32.9918L36.613 33.0896L40.5351 27.8602L38.0532 27.1401C37.0045 26.7905 36.0607 26.2172 35.3126 25.4692C32.635 22.7915 32.635 18.436 35.3126 15.7583C37.9903 13.0807 42.3458 13.0807 45.0235 15.7583C45.7995 16.5344 46.3658 17.4782 46.6944 18.4989V32.7401H53.2032V6.99829L46.6944 7.04024V9.42426Z" fill="white" fill-opacity="0.77" stroke="#D9DADD" stroke-width="0.699125" stroke-miterlimit="10"/>
<path d="M101.017 9.3895C96.0597 6.53008 89.6068 7.20124 85.3701 11.4379C80.3154 16.4926 80.3154 24.7213 85.3701 29.776C86.8523 31.2581 88.684 32.3628 90.6695 32.985L90.9841 33.0829L94.9062 27.8534L92.4243 27.1333C91.3756 26.7837 90.4318 26.2105 89.6837 25.4624C87.0061 22.7847 87.0061 18.4292 89.6837 15.7515C92.3614 13.0739 96.7169 13.0739 99.3946 15.7515C100.136 16.4926 100.681 17.3875 101.017 18.3523V32.7333H107.525V1.47541L101.017 1.46143V9.3965V9.3895Z" fill="white" fill-opacity="0.77" stroke="#D9DADD" stroke-width="0.699125" stroke-miterlimit="10"/>
<path d="M136.729 32.7333H143.23V1.47541L136.729 1.46143V32.7333Z" fill="white" fill-opacity="0.77" stroke="#D9DADD" stroke-width="0.699125" stroke-miterlimit="10"/>
<path d="M164.365 6.99829V9.43125C159.401 6.52289 152.906 7.18706 148.648 11.4377C143.594 16.4924 143.594 24.7211 148.648 29.7758C150.131 31.2579 151.962 32.3625 153.948 32.9848L154.262 33.0826L158.184 27.8532L155.703 27.1331C154.654 26.7835 153.71 26.2103 152.962 25.4622C150.284 22.7845 150.284 18.429 152.962 15.7513C155.64 13.0737 159.995 13.0737 162.673 15.7513C163.463 16.5413 164.036 17.4992 164.365 18.5408V32.7331H170.874V6.99829H164.365Z" fill="white" fill-opacity="0.77" stroke="#D9DADD" stroke-width="0.699125" stroke-miterlimit="10"/>
<path d="M17.0309 26.4342C11.8364 26.4342 7.62771 22.2254 7.62771 17.0309C7.62771 11.8364 11.8364 7.62771 17.0309 7.62771C20.191 7.62771 22.9875 9.18676 24.6933 11.5778L28.8182 6.17353C25.8889 2.98552 21.6871 1 17.0309 1C8.18002 1 1 8.18002 1 17.0309C1 25.8819 8.18002 33.0619 17.0309 33.0619C20.2819 33.0619 23.3091 32.0901 25.8399 30.4262L22.5051 24.6933C20.995 25.742 19.0654 26.4412 17.0309 26.4412V26.4342Z" fill="white" fill-opacity="0.77" stroke="#D9DADD" stroke-width="0.699125" stroke-miterlimit="10"/>
<path d="M67.3824 8.02628H56.4551V13.9269L67.3824 14.0527C69.7734 14.3254 71.8149 15.7376 72.9614 17.7301C73.6186 18.8697 73.8983 20.1841 73.8913 21.4984L73.8563 32.7264H80.0226L79.9247 20.5686C79.5052 13.836 74.115 8.44575 67.3754 8.01929L67.3824 8.02628Z" fill="white" fill-opacity="0.77" stroke="#D9DADD" stroke-width="0.699125" stroke-miterlimit="10"/>
<path d="M62.9639 17.1638H56.4551V32.7263H62.9639V17.1638Z" fill="white" fill-opacity="0.77" stroke="#D9DADD" stroke-width="0.699125" stroke-miterlimit="10"/>
<path d="M134.267 16.031C134.239 15.9471 134.212 15.8702 134.177 15.7863L134.198 15.7724L134.149 15.6675C132.848 12.6822 130.562 10.1933 127.612 8.83005C124.326 7.31295 120.802 7.29198 117.726 8.41058C117.712 8.41058 117.698 8.41757 117.684 8.42456C117.544 8.4735 117.412 8.54341 117.272 8.59934C117.265 8.59934 117.251 8.60633 117.244 8.61332C117.153 8.64828 117.069 8.69023 116.978 8.72518C116.803 8.80209 116.622 8.86501 116.447 8.9489C110.015 12.067 107.316 19.8343 110.427 26.2732C111.902 29.3214 114.426 31.5167 117.356 32.6632C117.433 32.6912 117.502 32.7261 117.579 32.7541C117.761 32.824 117.95 32.8869 118.132 32.9429C118.181 32.9569 118.223 32.9778 118.264 32.9918L118.579 33.0897V33.0757C120.432 33.5931 122.396 33.7119 124.34 33.3693H124.382V33.3624C125.521 33.1596 126.654 32.81 127.745 32.2787C128.269 32.027 128.779 31.7334 129.262 31.4118L126.976 28.4755L125.899 27.0842L125.493 26.5669C125.361 26.6438 125.221 26.7207 125.081 26.7836C124.661 26.9863 124.235 27.1401 123.802 27.252L123.081 27.3778C121.991 27.5247 120.886 27.4128 119.886 27.0702C117.209 26.1404 115.475 23.7144 115.286 21.0578C115.286 21.0298 115.286 21.0018 115.286 20.9739C115.272 20.7921 115.272 20.6173 115.279 20.4355C115.279 20.3656 115.279 20.2887 115.286 20.2188C115.293 20.079 115.307 19.9391 115.321 19.7993C115.335 19.7014 115.349 19.6036 115.363 19.5127C115.384 19.3938 115.405 19.275 115.426 19.1561C115.447 19.0513 115.475 18.9394 115.503 18.8345C115.531 18.7297 115.566 18.6178 115.594 18.5129C115.629 18.3941 115.671 18.2752 115.72 18.1634C115.755 18.0725 115.79 17.9886 115.825 17.9047C115.88 17.7719 115.943 17.632 116.013 17.4992C116.041 17.4433 116.069 17.3943 116.097 17.3384C116.181 17.1776 116.272 17.0238 116.377 16.87C116.391 16.849 116.405 16.828 116.419 16.8071C116.663 16.4365 116.95 16.087 117.272 15.7654C118.104 14.9334 119.103 14.3601 120.159 14.0455C120.173 14.0455 120.187 14.0385 120.201 14.0315C120.397 13.9756 120.6 13.9267 120.802 13.8847C120.851 13.8777 120.907 13.8707 120.956 13.8638C121.159 13.8288 121.369 13.8008 121.578 13.7868C121.795 13.7729 122.012 13.7589 122.229 13.7659C122.263 13.7659 122.298 13.7659 122.333 13.7659C123.389 13.8008 124.438 14.0805 125.389 14.5978L125.92 14.8845C126.297 15.1362 126.661 15.4298 126.997 15.7654C127.661 16.4295 128.157 17.2126 128.5 18.0585H122.921L127.332 23.5396H134.631L134.743 23.2041C134.82 22.9803 134.876 22.7426 134.918 22.5119C134.974 22.1973 135.016 21.8897 135.043 21.5751L135.064 21.0857C135.064 21.0717 135.064 21.0647 135.064 21.0508C135.155 19.3519 134.89 17.66 134.246 16.038L134.267 16.031Z" fill="white" fill-opacity="0.77" stroke="#D9DADD" stroke-width="0.699125" stroke-miterlimit="10"/>
<path d="M188.323 14.4861C189.589 14.8637 190.686 15.367 191.616 15.9962L189.379 19.8414C188.484 19.2611 187.498 18.7857 186.415 18.4082C185.331 18.0307 184.415 17.8419 183.667 17.8419C183.052 17.8419 182.563 17.9538 182.192 18.1845C181.822 18.4152 181.619 18.7438 181.584 19.1842C181.563 19.7435 181.815 20.177 182.332 20.4776C182.849 20.7783 183.681 21.0998 184.821 21.4494C185.96 21.799 186.904 22.1485 187.652 22.4911C188.4 22.8337 189.037 23.344 189.575 24.0152C190.106 24.6933 190.379 25.5742 190.379 26.6649C190.379 28.0142 190.022 29.1747 189.309 30.1256C188.596 31.0834 187.631 31.8035 186.415 32.2859C185.191 32.7682 183.849 33.0129 182.374 33.0129C180.899 33.0129 179.326 32.7473 177.872 32.2229C176.417 31.6986 175.18 30.9715 174.159 30.0347L176.396 26.2454C177.242 27.0704 178.27 27.7485 179.494 28.2869C180.71 28.8252 181.815 29.0908 182.8 29.0908C183.569 29.0908 184.178 28.944 184.618 28.6574C185.059 28.3708 185.275 27.9443 185.275 27.378C185.275 26.9935 185.135 26.6719 184.856 26.4202C184.576 26.1685 184.22 25.9588 183.8 25.798C183.381 25.6442 182.772 25.4414 181.982 25.1897C180.843 24.8751 179.906 24.5465 179.165 24.2179C178.424 23.8894 177.795 23.393 177.27 22.7428C176.746 22.0926 176.48 21.2397 176.48 20.184C176.48 18.9186 176.816 17.821 177.48 16.8771C178.144 15.9403 179.081 15.2132 180.284 14.6889C181.486 14.1715 182.877 13.9128 184.457 13.9128C185.772 13.9128 187.065 14.1016 188.33 14.4791L188.323 14.4861Z" fill="white" fill-opacity="0.77"/>
<path d="M208.137 15.0874C209.514 15.8354 210.591 16.8631 211.36 18.1845C212.129 19.4988 212.52 20.981 212.52 22.6309C212.52 24.5465 212.031 26.3013 211.045 27.8953C210.059 29.4963 208.731 30.7547 207.039 31.6706C205.354 32.5934 203.508 33.0549 201.509 33.0549C199.754 33.0549 198.188 32.6773 196.811 31.9223C195.433 31.1672 194.364 30.1255 193.595 28.8042C192.833 27.4828 192.448 25.9797 192.448 24.3158C192.448 22.3862 192.938 20.6314 193.923 19.0514C194.909 17.4714 196.238 16.2269 197.915 15.3251C199.593 14.4232 201.432 13.9688 203.431 13.9688C205.186 13.9688 206.752 14.3393 208.13 15.0874H208.137ZM200.306 18.8417C199.432 19.366 198.726 20.0861 198.202 21.0019C197.678 21.9178 197.412 22.9036 197.412 23.9802C197.412 24.9101 197.615 25.756 198.02 26.5111C198.426 27.2661 198.978 27.8604 199.677 28.3008C200.376 28.7413 201.152 28.958 201.991 28.958C202.956 28.958 203.872 28.6923 204.732 28.154C205.592 27.6227 206.277 26.8956 206.787 25.9797C207.298 25.0709 207.549 24.0641 207.549 22.9805C207.549 22.0506 207.354 21.2117 206.969 20.4636C206.585 19.7156 206.046 19.1283 205.361 18.7018C204.676 18.2754 203.921 18.0586 203.096 18.0586C202.11 18.0586 201.18 18.3243 200.306 18.8486V18.8417Z" fill="white" fill-opacity="0.77"/>
<path d="M229.641 18.1006H220.686L219.868 22.2115H228.138L227.376 26.0567H219.106L217.763 32.7194H212.946L216.631 14.2625H230.403L229.641 18.1076V18.1006Z" fill="white" fill-opacity="0.77"/>
<path d="M248.693 14.2554L247.903 18.2334H242.401L239.479 32.7123H234.662L237.584 18.2334H232.082L232.872 14.2554H248.7H248.693Z" fill="white" fill-opacity="0.77"/>
</svg>
