<svg width="44" height="31" viewBox="0 0 44 31" fill="none" xmlns="http://www.w3.org/2000/svg">
<path d="M33.6034 0.293213C33.8048 0.294001 33.9843 0.295564 34.1376 0.298096C34.605 0.298097 34.8169 0.29952 35.0555 0.308838C35.7773 0.317004 36.4976 0.373965 37.2313 0.482666C37.9967 0.608796 38.7391 0.838029 39.4413 1.16528C40.1478 1.50012 40.7924 1.93777 41.3475 2.45825C41.9046 2.97637 42.3718 3.57261 42.7372 4.23657C43.0847 4.88659 43.3302 5.58005 43.4686 6.31274C43.582 6.97449 43.6434 7.64356 43.6512 8.28247C43.657 8.41731 43.6601 8.55319 43.663 8.73364C43.6641 8.80542 43.6639 8.80564 43.6649 8.87622C43.6669 9.0141 43.668 9.07614 43.6698 9.1731V21.6165C43.6682 21.6925 43.6669 21.7545 43.6649 21.8948C43.6608 22.1903 43.6576 22.3244 43.6512 22.4641C43.6435 23.1427 43.58 23.8197 43.4598 24.4944C43.3276 25.2164 43.0814 25.9166 42.7235 26.5833C42.3609 27.2399 41.8913 27.841 41.3319 28.3635C40.7696 28.8895 40.1206 29.3285 39.41 29.6643C38.7046 29.9979 37.9486 30.2301 37.163 30.3538C36.4463 30.4635 35.7218 30.5245 34.9979 30.5364C34.8648 30.5388 34.7601 30.5401 34.5282 30.5422C34.3046 30.5443 34.2054 30.5456 34.0594 30.5481H19.8593C19.7393 30.5459 19.6414 30.5443 19.4198 30.5422C19.1901 30.5401 19.0868 30.5397 18.9628 30.5374C18.2419 30.5277 17.5227 30.4681 16.7968 30.3577C16.0281 30.2318 15.2824 30.0038 14.5663 29.6721C13.8674 29.3353 13.2284 28.8997 12.6727 28.3821C12.6462 28.3574 12.6065 28.3183 12.538 28.2512C12.5248 28.2384 12.4814 28.198 12.453 28.1721C12.186 27.9322 12.0669 27.8247 11.9198 27.6877C11.9137 27.6821 7.16358 23.2644 7.13464 23.2395C7.023 23.1417 6.91144 23.0386 6.80554 22.9348C6.70616 22.8465 6.61989 22.7673 6.44519 22.6047L2.70691 19.1204L2.35144 18.7903C2.25476 18.7003 2.18325 18.6308 2.06336 18.511C1.74677 18.2215 1.44769 17.9158 1.16687 17.5959C0.905363 17.3366 0.694648 17.0361 0.545778 16.7083L0.509645 16.6174C0.238842 15.8395 0.238934 15.0017 0.542848 14.1399C0.690526 13.8085 0.902243 13.5049 1.16687 13.2444C1.44754 12.9221 1.74709 12.6164 2.03113 12.3606C2.18378 12.2097 2.25478 12.14 2.35144 12.05C2.52452 11.889 2.59958 11.8187 2.70691 11.7141L6.8075 7.89868C6.88152 7.82981 6.91705 7.79614 6.96179 7.75513C7.02338 7.69868 7.07966 7.64864 7.10828 7.62427C7.14621 7.58898 7.18481 7.55709 7.22058 7.53052L11.3055 3.72485L11.9198 3.15259C12.0669 3.01569 12.186 2.90807 12.453 2.66821C12.4572 2.66431 12.5244 2.6013 12.5399 2.58618C12.6059 2.52153 12.6467 2.48249 12.6727 2.45825C13.2289 1.94028 13.8678 1.5053 14.5839 1.1604C15.2826 0.836974 16.0277 0.608385 16.8143 0.479736C17.5262 0.373586 18.2461 0.31663 18.9325 0.309814C19.2045 0.299699 19.416 0.297941 19.8632 0.298096C20.1728 0.293295 20.4192 0.292236 20.9618 0.292236H33.0594C33.3312 0.292236 33.4518 0.29262 33.6034 0.293213ZM19.8837 2.53931C19.4482 2.53931 19.2579 2.54069 18.994 2.55005C18.3917 2.55643 17.7905 2.60383 17.2137 2.6897C16.6729 2.77824 16.148 2.93905 15.6737 3.15845C15.195 3.38914 14.7573 3.68784 14.3759 4.04321C14.3722 4.04669 14.354 4.06385 14.2792 4.13696C14.1891 4.22466 14.1487 4.26368 14.1024 4.302C13.8625 4.51758 13.7525 4.617 13.6229 4.73755L13.0096 5.30884L8.85437 9.18091C8.81031 9.22191 8.76493 9.25717 8.65222 9.35181C8.61319 9.38758 8.58245 9.41682 8.51062 9.48364L8.14929 9.81958L4.43152 13.2786C4.3267 13.3812 4.24246 13.4602 4.05457 13.635C3.98066 13.7038 3.9212 13.7622 3.74793 13.9319C3.48581 14.1692 3.23948 14.4213 3.01062 14.6868L2.92859 14.7727C2.87013 14.8278 2.82114 14.8916 2.78504 14.9612C2.6917 15.2598 2.6914 15.5775 2.78406 15.8762C2.82226 15.9485 2.87299 16.0146 2.93347 16.0725L3.00672 16.1497C3.2394 16.4169 3.48859 16.6713 3.78504 16.9436C3.92127 17.0783 3.98066 17.1366 4.05457 17.2053L4.41101 17.5364L8.14929 21.0208C8.32256 21.182 8.39816 21.2519 8.53601 21.3762C8.60265 21.4421 8.67349 21.5081 8.75965 21.5852C8.77782 21.6002 8.80418 21.6227 8.84754 21.6594L13.6229 26.1028C13.7525 26.2233 13.8625 26.3228 14.1024 26.5383C14.1487 26.5766 14.1891 26.6157 14.2821 26.7063C14.3556 26.7781 14.3732 26.7947 14.3768 26.7981C14.7578 27.153 15.1958 27.4506 15.6571 27.6731C16.1487 27.9006 16.6728 28.0615 17.1991 28.1477C17.7938 28.2381 18.3955 28.288 19.0048 28.2961C19.1246 28.2984 19.2228 28.299 19.4442 28.301C19.6738 28.3032 19.777 28.3047 19.8837 28.3069H34.035C34.1681 28.3045 34.2729 28.3032 34.5048 28.301C34.7288 28.299 34.8279 28.2984 34.953 28.2961C35.5624 28.2861 36.1704 28.235 36.7665 28.1438C37.3067 28.0587 37.8305 27.8973 38.3192 27.6663C38.8018 27.4381 39.2425 27.1401 39.6249 26.7825C40.0095 26.4232 40.3322 26.0102 40.5751 25.5706C40.821 25.1124 40.9933 24.623 41.0848 24.1233C41.1839 23.567 41.2367 23.0043 41.244 22.4084C41.2502 22.2627 41.2528 22.1415 41.2567 21.8655C41.2588 21.7206 41.2601 21.6555 41.2616 21.595V9.19556C41.2599 9.11434 41.2587 9.04916 41.2567 8.90649C41.2557 8.83622 41.2558 8.83571 41.2548 8.76685C41.2522 8.60337 41.2488 8.48393 41.243 8.34009C41.2357 7.77919 41.1844 7.21913 41.0927 6.68286C40.9975 6.17979 40.825 5.692 40.5868 5.24634C40.3423 4.80217 40.0242 4.39631 39.6415 4.04028C39.2632 3.68564 38.8267 3.38866 38.3553 3.16528C37.8684 2.93833 37.3483 2.77875 36.8329 2.6936C36.2352 2.60519 35.6307 2.55672 34.9921 2.54907C34.7627 2.54054 34.5724 2.53946 34.1171 2.53931C33.9548 2.53679 33.7855 2.53518 33.5936 2.53442C33.4465 2.53385 33.3278 2.53345 33.0594 2.53345H20.9618C20.4327 2.53345 20.1955 2.53463 19.8837 2.53931ZM31.3856 9.44751C31.694 9.15934 32.1584 9.07261 32.5624 9.22778C32.9664 9.38301 33.2303 9.74976 33.2303 10.1565C33.2302 10.4274 33.1106 10.6779 32.913 10.8625L32.9276 10.8762L28.0575 15.4114L32.8192 19.8352C32.8586 19.8626 32.8975 19.892 32.9335 19.925C33.2431 20.212 33.3366 20.6449 33.1698 21.0208C33.003 21.3965 32.6087 21.6417 32.1718 21.6418C31.8799 21.6418 31.6087 21.5305 31.41 21.3459L31.3973 21.3596L26.5292 16.8352L21.6669 21.3655L21.6493 21.3489C21.5518 21.4378 21.4376 21.5124 21.3065 21.5627C20.901 21.7185 20.4345 21.6322 20.1249 21.343C19.7038 20.9495 19.7038 20.3127 20.1249 19.9192C20.1835 19.8644 20.2488 19.8186 20.3173 19.7786L25.0018 15.4153L20.1249 10.8821L20.1405 10.8665C20.045 10.7758 19.9651 10.6691 19.911 10.5471C19.7437 10.1698 19.8375 9.73555 20.1483 9.44751C20.5712 9.05573 21.2557 9.05573 21.6786 9.44751C21.7362 9.50089 21.7837 9.56118 21.8261 9.62329L26.5302 13.9924L31.2684 9.57935C31.3031 9.5333 31.3418 9.48883 31.3856 9.44751Z" fill="white" fill-opacity="0.6"/>
</svg>
