<svg width="64" height="64" viewBox="0 0 64 64" fill="none" xmlns="http://www.w3.org/2000/svg">
<path d="M61.2849 59.0698H58.3314V40.6105C58.3314 25.9317 46.4288 14.0291 31.75 14.0291C17.0712 14.0291 5.1686 25.9317 5.1686 40.6105V59.0698H2.21512C1.00419 59.0698 0 60.074 0 61.2849C0 62.4958 1.00419 63.5 2.21512 63.5H61.2849C62.4958 63.5 63.5 62.4958 63.5 61.2849C63.5 60.074 62.4958 59.0698 61.2849 59.0698Z" fill="#666666"/>
<path d="M31.7501 7.38372C30.5392 7.38372 29.535 6.37953 29.535 5.1686V2.21512C29.535 1.00419 30.5392 0 31.7501 0C32.961 0 33.9652 1.00419 33.9652 2.21512V5.1686C33.9652 6.37953 32.961 7.38372 31.7501 7.38372Z" fill="#666666"/>
<path d="M11.0753 13.2905C10.5142 13.2905 9.95302 13.0837 9.50999 12.6407L6.55651 9.68724C5.7 8.83072 5.7 7.41305 6.55651 6.55654C7.41302 5.70003 8.83069 5.70003 9.6872 6.55654L12.6407 9.51003C13.4972 10.3665 13.4972 11.7842 12.6407 12.6407C12.1977 13.0837 11.6365 13.2905 11.0753 13.2905Z" fill="#666666"/>
<path d="M52.4242 13.2905C51.8631 13.2905 51.3019 13.0837 50.8589 12.6407C50.0024 11.7842 50.0024 10.3665 50.8589 9.51003L53.8124 6.55654C54.6689 5.70003 56.0866 5.70003 56.9431 6.55654C57.7996 7.41305 57.7996 8.83072 56.9431 9.68724L53.9896 12.6407C53.5466 13.0837 52.9854 13.2905 52.4242 13.2905Z" fill="#666666"/>
</svg>
