<svg width="202" height="53" viewBox="0 0 202 53" fill="none" xmlns="http://www.w3.org/2000/svg">
<path d="M38.7788 2.39058C42.1934 3.40931 45.1552 4.7676 47.6643 6.46548L41.6274 16.8414C39.2127 15.2755 36.5526 13.9927 33.6285 12.974C30.7044 11.9553 28.2331 11.4459 26.2145 11.4459C24.5544 11.4459 23.2338 11.7477 22.234 12.3703C21.2341 12.9929 20.687 13.8795 20.5926 15.068C20.536 16.5773 21.2152 17.7469 22.6112 18.5581C24.0073 19.3693 26.2522 20.2371 29.3273 21.1804C32.4023 22.1236 34.9491 23.0669 36.9677 23.9913C38.9863 24.9157 40.703 26.2929 42.1557 28.1039C43.5894 29.9338 44.3252 32.3109 44.3252 35.2538C44.3252 38.8948 43.363 42.0265 41.4388 44.5922C39.5145 47.1767 36.9111 49.1198 33.6285 50.4215C30.3271 51.7232 26.705 52.3835 22.7244 52.3835C18.7438 52.3835 14.4992 51.6666 10.5752 50.2517C6.65124 48.8368 3.31207 46.8748 0.557739 44.3469L6.59464 34.1219C8.87734 36.348 11.6505 38.178 14.9519 39.6306C18.2345 41.0832 21.2152 41.8001 23.8752 41.8001C25.9504 41.8001 27.5917 41.4039 28.7802 40.6305C29.9687 39.857 30.5535 38.7062 30.5535 37.1781C30.5535 36.1405 30.1762 35.2727 29.4216 34.5936C28.667 33.9144 27.7049 33.3485 26.5729 32.9146C25.441 32.4995 23.7997 31.9524 21.668 31.2733C18.5929 30.4243 16.065 29.5377 14.0653 28.651C12.0656 27.7643 10.3677 26.4249 8.9528 24.6704C7.53791 22.916 6.82102 20.6144 6.82102 17.7658C6.82102 14.3512 7.72654 11.3893 9.51874 8.84249C11.3109 6.31455 13.8389 4.35257 17.0837 2.93767C20.3285 1.54164 24.0827 0.843628 28.3463 0.843628C31.8929 0.843628 35.383 1.35299 38.7976 2.37172L38.7788 2.39058Z" fill="url(#paint0_linear_1682_8353)"/>
<path d="M92.2405 4.01307C95.957 6.03165 98.8622 8.80484 100.937 12.3704C103.013 15.917 104.069 19.9165 104.069 24.3687C104.069 29.5378 102.748 34.2729 100.088 38.5742C97.4284 42.8944 93.844 46.2901 89.2786 48.7614C84.7321 51.2517 79.7517 52.4968 74.3562 52.4968C69.621 52.4968 65.3952 51.478 61.6788 49.4406C57.9623 47.4032 55.076 44.5922 53.0008 41.0267C50.9445 37.4612 49.9069 33.4051 49.9069 28.9152C49.9069 23.7084 51.2275 18.9732 53.8875 14.7097C56.5475 10.4461 60.1318 7.08811 64.6595 4.65449C69.1872 2.22087 74.1487 0.994629 79.5442 0.994629C84.2793 0.994629 88.5052 1.99449 92.2216 4.01307H92.2405ZM71.1114 14.1437C68.7532 15.5586 66.8479 17.5017 65.433 19.9731C64.0181 22.4444 63.3012 25.1044 63.3012 28.0097C63.3012 30.5187 63.8483 32.8014 64.9425 34.8389C66.0367 36.8763 67.527 38.4799 69.4135 39.6684C71.3001 40.8569 73.3941 41.4417 75.6579 41.4417C78.2613 41.4417 80.7327 40.7249 83.0531 39.2722C85.3736 37.8385 87.2224 35.8765 88.5995 33.4051C89.9767 30.9527 90.6558 28.2361 90.6558 25.3119C90.6558 22.8029 90.1276 20.539 89.09 18.5205C88.0524 16.5019 86.5998 14.9172 84.751 13.7664C82.9022 12.6156 80.8648 12.0308 78.6387 12.0308C75.9787 12.0308 73.4695 12.7477 71.1114 14.1626V14.1437Z" fill="url(#paint1_linear_1682_8353)"/>
<path d="M150.272 12.1439H126.106L123.899 23.2367H146.216L144.16 33.6126H121.842L118.22 51.5911H105.222L115.164 1.78687H152.329L150.272 12.1628V12.1439Z" fill="url(#paint2_linear_1682_8353)"/>
<path d="M201.678 1.76831L199.546 12.5026H184.699L176.813 51.5726H163.815L171.701 12.5026H156.854L158.986 1.76831H201.697H201.678Z" fill="url(#paint3_linear_1682_8353)"/>
<defs>
<linearGradient id="paint0_linear_1682_8353" x1="24.111" y1="0.843628" x2="24.111" y2="52.3835" gradientUnits="userSpaceOnUse">
<stop stop-color="#BFBFC2"/>
<stop offset="1" stop-color="#545457"/>
</linearGradient>
<linearGradient id="paint1_linear_1682_8353" x1="76.9879" y1="0.994629" x2="76.9879" y2="52.4968" gradientUnits="userSpaceOnUse">
<stop stop-color="#BFBFC2"/>
<stop offset="1" stop-color="#545457"/>
</linearGradient>
<linearGradient id="paint2_linear_1682_8353" x1="128.775" y1="1.78687" x2="128.775" y2="51.5911" gradientUnits="userSpaceOnUse">
<stop stop-color="#BFBFC2"/>
<stop offset="1" stop-color="#545457"/>
</linearGradient>
<linearGradient id="paint3_linear_1682_8353" x1="179.275" y1="1.76831" x2="179.275" y2="51.5726" gradientUnits="userSpaceOnUse">
<stop stop-color="#BFBFC2"/>
<stop offset="1" stop-color="#545457"/>
</linearGradient>
</defs>
</svg>
