<svg width="64" height="54" viewBox="0 0 64 54" fill="none" xmlns="http://www.w3.org/2000/svg">
<path d="M59.4286 6.2713V14.6286H0V6.2713C0 2.82142 2.86616 0 6.37074 0H12.7415V6.2713C12.7415 7.42126 13.6991 8.35727 14.8605 8.35727C16.0219 8.35727 16.9796 7.41457 16.9796 6.2713V0H42.449V6.2713C42.449 7.42126 43.4066 8.35727 44.568 8.35727C45.7294 8.35727 46.6871 7.41457 46.6871 6.2713V0H53.0578C56.5624 0 59.4286 2.82142 59.4286 6.2713Z" fill="#666666"/>
<path d="M37.6404 40.72C37.6404 32.7885 43.9024 26.3568 51.6248 26.3568C54.5181 26.3568 57.2008 27.2566 59.4286 28.7983V18.2857H0V40.0852C0 43.6848 2.86616 46.6286 6.37074 46.6286H38.8901C38.0954 44.8288 37.6472 42.8337 37.6472 40.727L37.6404 40.72Z" fill="#666666"/>
<path d="M52.1155 29.2571C45.5507 29.2596 40.2285 34.5818 40.2285 41.1504C40.2285 47.2829 44.8719 52.3174 50.8304 52.9618C57.9677 53.7052 63.9999 48.1401 63.9999 41.1504C63.9999 34.5822 58.6781 29.2571 52.113 29.2571H52.1155ZM57.222 42.674H52.1155C51.2686 42.674 50.585 41.9877 50.585 41.1427V33.7588C50.585 32.9114 51.271 32.2275 52.1155 32.2275C52.9624 32.2275 53.646 32.9113 53.646 33.7588V39.6113H57.222C58.0664 39.6113 58.7524 40.2951 58.7524 41.1425C58.7524 41.9874 58.0665 42.674 57.222 42.674Z" fill="#666666"/>
</svg>
