<svg width="92" height="98" viewBox="0 0 92 98" fill="none" xmlns="http://www.w3.org/2000/svg">
  <path d="M46 0.84375C33.7072 0.84375 23.7419 10.6563 23.7419 22.7608C23.7419 34.8652 33.7072 44.6778 46 44.6778C58.2928 44.6778 68.2581 34.8652 68.2581 22.7608C68.2581 10.6563 58.2928 0.84375 46 0.84375Z" fill="url(#paint0_linear_1682_8338)"/>
  <path d="M22.2581 56.3669C9.96527 56.3669 0 66.1795 0 78.2839V85.2289C0 89.6312 3.24008 93.3847 7.65245 94.0941C33.0494 98.177 58.9506 98.177 84.3475 94.0941C88.7599 93.3847 92 89.6312 92 85.2289V78.2839C92 66.1795 82.0347 56.3669 69.7419 56.3669H67.7187C66.6237 56.3669 65.5355 56.5374 64.4945 56.8721L59.3573 58.5239C50.6779 61.3145 41.3221 61.3145 32.6427 58.5239L27.5055 56.8721C26.4645 56.5374 25.3763 56.3669 24.2813 56.3669H22.2581Z" fill="url(#paint0_linear_1682_8338)"/>
  <defs>
    <linearGradient id="paint0_linear_1682_8338" x1="46.5" y1="0" x2="46.5" y2="93" gradientUnits="userSpaceOnUse">
      <stop stop-color="#48C7FF"/>
      <stop offset="1" stop-color="#065BFF"/>
    </linearGradient>
  </defs>
</svg>
