<svg width="93" height="93" viewBox="0 0 93 93" fill="none" xmlns="http://www.w3.org/2000/svg">
<path d="M31.9551 46.5C31.9551 38.4671 38.4671 31.9551 46.5 31.9551C54.5329 31.9551 61.0448 38.4671 61.0448 46.5C61.0448 54.5329 54.5329 61.0449 46.5 61.0449C38.4671 61.0449 31.9551 54.5329 31.9551 46.5Z" fill="#666666"/>
<path d="M31.9551 46.5C31.9551 38.4671 38.4671 31.9551 46.5 31.9551C54.5329 31.9551 61.0448 38.4671 61.0448 46.5C61.0448 54.5329 54.5329 61.0449 46.5 61.0449C38.4671 61.0449 31.9551 54.5329 31.9551 46.5Z" fill="url(#paint0_linear_1682_8338)"/>
<path fill-rule="evenodd" clip-rule="evenodd" d="M44.0865 1.02387C45.4059 -0.341291 47.5941 -0.341291 48.9135 1.02387L60.4255 12.9349H76.7085C78.5623 12.9349 80.0651 14.4377 80.0651 16.2914V32.5745L91.9761 44.0865C93.3413 45.4059 93.3413 47.5941 91.9761 48.9135L80.0651 60.4255V76.7085C80.0651 78.5623 78.5623 80.0651 76.7085 80.0651H60.4255L48.9135 91.9761C47.5941 93.3413 45.4059 93.3413 44.0865 91.9761L32.5745 80.0651H16.2914C14.4377 80.0651 12.9349 78.5623 12.9349 76.7085V60.4255L1.02387 48.9135C-0.341289 47.5941 -0.341292 45.4059 1.02387 44.0865L12.9349 32.5745V16.2914C12.9349 14.4377 14.4377 12.9349 16.2914 12.9349H32.5745L44.0865 1.02387ZM46.5 25.2421C34.7596 25.2421 25.2421 34.7596 25.2421 46.5C25.2421 58.2404 34.7596 67.7579 46.5 67.7579C58.2404 67.7579 67.7578 58.2404 67.7578 46.5C67.7578 34.7596 58.2404 25.2421 46.5 25.2421Z" fill="#666666"/>
<path fill-rule="evenodd" clip-rule="evenodd" d="M44.0865 1.02387C45.4059 -0.341291 47.5941 -0.341291 48.9135 1.02387L60.4255 12.9349H76.7085C78.5623 12.9349 80.0651 14.4377 80.0651 16.2914V32.5745L91.9761 44.0865C93.3413 45.4059 93.3413 47.5941 91.9761 48.9135L80.0651 60.4255V76.7085C80.0651 78.5623 78.5623 80.0651 76.7085 80.0651H60.4255L48.9135 91.9761C47.5941 93.3413 45.4059 93.3413 44.0865 91.9761L32.5745 80.0651H16.2914C14.4377 80.0651 12.9349 78.5623 12.9349 76.7085V60.4255L1.02387 48.9135C-0.341289 47.5941 -0.341292 45.4059 1.02387 44.0865L12.9349 32.5745V16.2914C12.9349 14.4377 14.4377 12.9349 16.2914 12.9349H32.5745L44.0865 1.02387ZM46.5 25.2421C34.7596 25.2421 25.2421 34.7596 25.2421 46.5C25.2421 58.2404 34.7596 67.7579 46.5 67.7579C58.2404 67.7579 67.7578 58.2404 67.7578 46.5C67.7578 34.7596 58.2404 25.2421 46.5 25.2421Z" fill="url(#paint1_linear_1682_8338)"/>
<defs>
<linearGradient id="paint0_linear_1682_8338" x1="46.5" y1="0" x2="46.5" y2="93" gradientUnits="userSpaceOnUse">
<stop stop-color="#48C7FF"/>
<stop offset="1" stop-color="#065BFF"/>
</linearGradient>
<linearGradient id="paint1_linear_1682_8338" x1="46.5" y1="0" x2="46.5" y2="93" gradientUnits="userSpaceOnUse">
<stop stop-color="#48C7FF"/>
<stop offset="1" stop-color="#065BFF"/>
</linearGradient>
</defs>
</svg>
