<svg width="71" height="71" viewBox="0 0 71 71" fill="none" xmlns="http://www.w3.org/2000/svg">
<path d="M52.6065 6.73301C39.2122 -1.0772 21.7241 0.714994 10.254 12.1851C-3.38557 25.8246 -3.38557 48.029 10.254 61.6686C14.2534 65.6681 19.1961 68.6488 24.5539 70.3278L25.4028 70.5919L35.9862 56.4807L29.289 54.5376C26.4593 53.5943 23.9125 52.0474 21.8939 50.0288C14.6685 42.8034 14.6685 31.0503 21.8939 23.8249C29.1193 16.5995 40.8723 16.5995 48.0977 23.8249C50.1917 25.919 51.7198 28.4658 52.6065 31.2201V69.6486H70.17V0.186768L52.6065 0.29996V6.73301Z" fill="url(#paint0_linear_1682_8345)"/>
<defs>
<linearGradient id="paint0_linear_1682_8345" x1="35.0972" y1="0.186768" x2="35.0972" y2="70.5919" gradientUnits="userSpaceOnUse">
<stop stop-color="#BFBFC2"/>
<stop offset="1" stop-color="#545457"/>
</linearGradient>
</defs>
</svg>
