<svg width="76" height="87" viewBox="0 0 76 87" fill="none" xmlns="http://www.w3.org/2000/svg">
<path d="M43.5613 68.6318C29.5444 68.6318 18.1875 57.2749 18.1875 43.258C18.1875 29.2411 29.5444 17.8843 43.5613 17.8843C52.0884 17.8843 59.6345 22.0912 64.2376 28.5431L75.3681 13.9603C67.4636 5.35773 56.1255 0 43.5613 0C19.6779 0 0.303253 19.3746 0.303253 43.258C0.303253 67.1414 19.6779 86.5161 43.5613 86.5161C52.3336 86.5161 60.5023 83.8938 67.3315 79.4038L58.3328 63.9343C54.2579 66.7641 49.0511 68.6507 43.5613 68.6507V68.6318Z" fill="url(#paint0_linear_1682_8349)"/>
<defs>
<linearGradient id="paint0_linear_1682_8349" x1="37.8357" y1="0" x2="37.8357" y2="86.5161" gradientUnits="userSpaceOnUse">
<stop stop-color="#BFBFC2"/>
<stop offset="1" stop-color="#545457"/>
</linearGradient>
</defs>
</svg>
