<svg width="71" height="71" viewBox="0 0 71 71" fill="none" xmlns="http://www.w3.org/2000/svg">
<path d="M53.1266 0.186768V6.75188C39.7323 -1.09607 22.2065 0.69613 10.7175 12.1662C-2.92204 25.8058 -2.92204 48.0102 10.7175 61.6498C14.717 65.6492 19.6597 68.6299 25.0174 70.3089L25.8663 70.573L36.4497 56.4618L29.7526 54.5187C26.9228 53.5755 24.376 52.0285 22.3574 50.0099C15.132 42.7845 15.132 31.0315 22.3574 23.8061C29.5828 16.5807 41.3358 16.5807 48.5612 23.8061C50.693 25.9378 52.24 28.5224 53.1266 31.3333V69.6298H70.6902V0.186768H53.1266Z" fill="url(#paint0_linear_1682_8348)"/>
<defs>
<linearGradient id="paint0_linear_1682_8348" x1="35.589" y1="0.186768" x2="35.589" y2="70.573" gradientUnits="userSpaceOnUse">
<stop stop-color="#BFBFC2"/>
<stop offset="1" stop-color="#545457"/>
</linearGradient>
</defs>
</svg>
