<svg width="71" height="86" viewBox="0 0 71 86" fill="none" xmlns="http://www.w3.org/2000/svg">
<path d="M53.1899 21.6384C39.8144 13.9225 22.4018 15.7336 10.9695 27.166C-2.67012 40.8055 -2.67012 63.0099 10.9695 76.6495C14.9689 80.6489 19.9116 83.6297 25.2693 85.3087L26.1183 85.5728L36.7017 71.4616L30.0045 69.5185C27.1747 68.5752 24.6279 67.0282 22.6093 65.0097C15.3839 57.7843 15.3839 46.0312 22.6093 38.8058C29.8347 31.5804 41.5878 31.5804 48.8132 38.8058C50.8129 40.8055 52.2844 43.2203 53.1899 45.8237V84.6295H70.7534V0.28297L53.1899 0.245239V21.6573V21.6384Z" fill="url(#paint0_linear_1682_8346)"/>
<defs>
<linearGradient id="paint0_linear_1682_8346" x1="35.7466" y1="0.245239" x2="35.7466" y2="85.5728" gradientUnits="userSpaceOnUse">
<stop stop-color="#BFBFC2"/>
<stop offset="1" stop-color="#545457"/>
</linearGradient>
</defs>
</svg>
