<svg width="71" height="71" viewBox="0 0 71 71" fill="none" xmlns="http://www.w3.org/2000/svg">
<path d="M67.9114 23.5598C67.8359 23.3334 67.7605 23.1259 67.6662 22.8995L67.7227 22.8618L67.5907 22.5788C64.0817 14.5233 57.9128 7.80728 49.9517 4.12855C41.085 0.0347937 31.5769 -0.0218009 23.2762 2.99664C23.2385 2.99664 23.2007 3.0155 23.163 3.03437C22.7857 3.16643 22.4273 3.35508 22.05 3.506C22.0311 3.506 21.9934 3.52487 21.9745 3.54373C21.7293 3.63806 21.5029 3.75125 21.2576 3.84558C20.786 4.05309 20.2955 4.22288 19.8239 4.44926C2.46784 12.8632 -4.81414 33.8225 3.58089 51.1974C7.56146 59.4226 14.3718 65.3463 22.2763 68.4402C22.4839 68.5157 22.6725 68.61 22.88 68.6855C23.3705 68.8741 23.8799 69.0439 24.3704 69.1948C24.5024 69.2326 24.6156 69.2891 24.7288 69.3269L25.5778 69.591V69.5533C30.577 70.9493 35.8782 71.27 41.1227 70.3456H41.2359V70.3267C44.311 69.7796 47.3671 68.8364 50.3101 67.4026C51.725 66.7235 53.1022 65.9311 54.4039 65.0633L48.2349 57.1399L45.3297 53.3857L44.2355 51.9897C43.8771 52.1972 43.4997 52.4047 43.1224 52.5745C41.9905 53.1216 40.8397 53.5367 39.6701 53.8385L37.727 54.1781C34.784 54.5742 31.8033 54.2724 29.1056 53.348C21.8802 50.8389 17.2016 44.2927 16.6922 37.1239C16.6922 37.0484 16.6922 36.973 16.6922 36.8975C16.6545 36.407 16.6545 35.9354 16.6734 35.4449C16.6734 35.2562 16.6734 35.0487 16.6922 34.8601C16.7111 34.4827 16.7488 34.1054 16.7866 33.7281C16.8243 33.464 16.862 33.1999 16.8998 32.9547C16.9564 32.634 17.0129 32.3132 17.0695 31.9925C17.1261 31.7096 17.2016 31.4077 17.2771 31.1247C17.3525 30.8418 17.4469 30.5399 17.5223 30.2569C17.6166 29.9362 17.7298 29.6155 17.8619 29.3137C17.9562 29.0684 18.0505 28.842 18.1449 28.6157C18.2958 28.2572 18.4656 27.8799 18.6542 27.5215C18.7297 27.3706 18.8052 27.2385 18.8806 27.0876C19.107 26.6537 19.3522 26.2386 19.6352 25.8236C19.6729 25.767 19.7107 25.7104 19.7484 25.6538C20.4087 24.654 21.1822 23.7107 22.05 22.8429C24.2949 20.5979 26.9927 19.051 29.8413 18.202C29.8791 18.202 29.9168 18.1832 29.9545 18.1643C30.4827 18.0134 31.0298 17.8813 31.5769 17.7681C31.709 17.7493 31.8599 17.7304 31.992 17.7115C32.5391 17.6172 33.105 17.5418 33.671 17.504C34.2558 17.4663 34.8406 17.4286 35.4254 17.4474C35.5197 17.4474 35.6141 17.4474 35.7084 17.4474C38.5571 17.5418 41.3868 18.2964 43.9525 19.6924L45.3863 20.4659C46.405 21.145 47.386 21.9374 48.2915 22.8429C50.0837 24.6351 51.4232 26.748 52.3476 29.0307H37.2931L49.1971 43.8211H68.8924L69.1942 42.9155C69.4018 42.3118 69.5527 41.6704 69.6659 41.0479C69.8168 40.1989 69.93 39.3689 70.0054 38.5199L70.062 37.1993C70.062 37.1616 70.062 37.1428 70.062 37.105C70.3073 32.5208 69.5904 27.9554 67.8548 23.5786L67.9114 23.5598Z" fill="url(#paint0_linear_1682_8352)"/>
<defs>
<linearGradient id="paint0_linear_1682_8352" x1="35.101" y1="0.876831" x2="35.101" y2="70.8694" gradientUnits="userSpaceOnUse">
<stop stop-color="#BFBFC2"/>
<stop offset="1" stop-color="#545457"/>
</linearGradient>
</defs>
</svg>
