<svg width="57" height="54" viewBox="0 0 57 54" fill="none" xmlns="http://www.w3.org/2000/svg">
<path d="M28.2503 27.3294C35.7563 27.3294 41.8814 21.2045 41.8814 13.6983C41.8814 6.12509 35.7565 0 28.2503 0C20.7441 0 14.6191 6.12496 14.6191 13.6311C14.6191 21.2044 20.7441 27.3294 28.2503 27.3294Z" fill="#565656"/>
<path d="M28.2503 27.3294C35.7563 27.3294 41.8814 21.2045 41.8814 13.6983C41.8814 6.12509 35.7565 0 28.2503 0C20.7441 0 14.6191 6.12496 14.6191 13.6311C14.6191 21.2044 20.7441 27.3294 28.2503 27.3294Z" fill="url(#paint0_linear_2276_7787)"/>
<path d="M41.2227 30.491H15.2775C6.84751 30.491 0 37.3385 0 45.7685V54.0002H56.5035L56.5009 45.7685C56.5009 37.3385 49.6527 30.491 41.2227 30.491Z" fill="#565656"/>
<path d="M41.2227 30.491H15.2775C6.84751 30.491 0 37.3385 0 45.7685V54.0002H56.5035L56.5009 45.7685C56.5009 37.3385 49.6527 30.491 41.2227 30.491Z" fill="url(#paint1_linear_2276_7787)"/>
<defs>
<linearGradient id="paint0_linear_2276_7787" x1="28.2517" y1="0" x2="28.2517" y2="54.0002" gradientUnits="userSpaceOnUse">
<stop stop-color="#48C7FF"/>
<stop offset="1" stop-color="#065BFF"/>
</linearGradient>
<linearGradient id="paint1_linear_2276_7787" x1="28.2517" y1="0" x2="28.2517" y2="54.0002" gradientUnits="userSpaceOnUse">
<stop stop-color="#48C7FF"/>
<stop offset="1" stop-color="#065BFF"/>
</linearGradient>
</defs>
</svg>
